# xmcd
#
# Track frame offsets: 
#        150
#        14790
#        27922
#        42342
#        58195
#        74320
#        88795
#        101992
#        118097
#
# Disc length: 1789 seconds
#
# Revision: 2
# Processed by: cddbd v1.5.1PL0 Copyright (c) Steve Scherf et al.
# Submitted via: ExactAudioCopy v0.95a5
#
DISCID=8306fb09
DTITLE=Steve Wariner - Greatest Hits [RCA]
DYEAR=1987
DGENRE=Country
TTITLE0=Lonely Women Make Good Lovers
TTITLE1=By Now
TTITLE2=When We're Together
TTITLE3=All Roads Lead To You
TTITLE4=Kansas City Lights
TTITLE5=Midnight Fire
TTITLE6=Your Memory
TTITLE7=You Make It Feel So Right
TTITLE8=Why Goodbye
EXTD=
EXTT0=
EXTT1=
EXTT2=
EXTT3=
EXTT4=
EXTT5=
EXTT6=
EXTT7=
EXTT8=
PLAYORDER=
